<?xml version = "1.0" encoding = "UTF-8" standalone = "no"?>
<!DOCTYPE svg PUBLIC "-//W3C//DTD SVG 1.1//EN" "http://www.w3.org/Graphics/SVG/1.1/DTD/svg11.dtd">
<svg width="338" height="82" viewBox="0 0 338 82" version="1.1" xmlns="http://www.w3.org/2000/svg">
  <defs/>
  <style type="text/css"><![CDATA[
  text {
    text-anchor:middle;
    alignment-baseline:top;
    font-family:Arial;
  }
  
]]></style>
  <g transform="translate(0 0) rotate(0)" style="opacity:1;">
    <rect x="0" y="0" width="338" height="81" stroke="none" fill="#E5E5E5"/>
  </g>
  <g transform="translate(133 79.5) rotate(-90)" style="opacity:1;">
    <rect x="0" y="0" width="20" height="2" stroke="#FFFFFF" fill="#FFFFFF"/>
    <rect x="0" y="2" width="20" height="2" stroke="#F4F4FF" fill="#F4F4FF"/>
    <rect x="0" y="4" width="20" height="2" stroke="#EAEAFF" fill="#EAEAFF"/>
    <rect x="0" y="6" width="20" height="2" stroke="#E0E0FF" fill="#E0E0FF"/>
    <rect x="0" y="8" width="20" height="2" stroke="#D6D6FF" fill="#D6D6FF"/>
    <rect x="0" y="10" width="20" height="2" stroke="#CCCCFF" fill="#CCCCFF"/>
    <rect x="0" y="12" width="20" height="2" stroke="#C1C1FF" fill="#C1C1FF"/>
    <rect x="0" y="14" width="20" height="2" stroke="#B7B7FF" fill="#B7B7FF"/>
    <rect x="0" y="16" width="20" height="2" stroke="#ADADFF" fill="#ADADFF"/>
    <rect x="0" y="18" width="20" height="2" stroke="#A3A3FF" fill="#A3A3FF"/>
    <rect x="0" y="20" width="20" height="2" stroke="#9999FF" fill="#9999FF"/>
    <rect x="0" y="22" width="20" height="2" stroke="#8E8EFF" fill="#8E8EFF"/>
    <rect x="0" y="24" width="20" height="2" stroke="#8484FF" fill="#8484FF"/>
    <rect x="0" y="26" width="20" height="2" stroke="#7A7AFF" fill="#7A7AFF"/>
    <rect x="0" y="28" width="20" height="2" stroke="#7070FF" fill="#7070FF"/>
    <rect x="0" y="30" width="20" height="2" stroke="#6666FF" fill="#6666FF"/>
    <rect x="0" y="32" width="20" height="2" stroke="#5B5BFF" fill="#5B5BFF"/>
    <rect x="0" y="34" width="20" height="2" stroke="#5151FF" fill="#5151FF"/>
    <rect x="0" y="36" width="20" height="2" stroke="#4747FF" fill="#4747FF"/>
    <rect x="0" y="38" width="20" height="2" stroke="#3D3DFF" fill="#3D3DFF"/>
    <rect x="0" y="40" width="20" height="2" stroke="#3232FF" fill="#3232FF"/>
    <rect x="0" y="42" width="20" height="2" stroke="#2828FF" fill="#2828FF"/>
    <rect x="0" y="44" width="20" height="2" stroke="#1E1EFF" fill="#1E1EFF"/>
    <rect x="0" y="46" width="20" height="2" stroke="#1414FF" fill="#1414FF"/>
    <rect x="0" y="48" width="20" height="2" stroke="#0A0AFF" fill="#0A0AFF"/>
    <rect x="0" y="50" width="20" height="2" stroke="#0000FF" fill="#0000FF"/>
    <rect x="0" y="52" width="20" height="2" stroke="#0000F4" fill="#0000F4"/>
    <rect x="0" y="54" width="20" height="2" stroke="#0000EA" fill="#0000EA"/>
    <rect x="0" y="56" width="20" height="2" stroke="#0000E0" fill="#0000E0"/>
    <rect x="0" y="58" width="20" height="2" stroke="#0000D6" fill="#0000D6"/>
    <rect x="0" y="60" width="20" height="2" stroke="#0000CC" fill="#0000CC"/>
    <rect x="0" y="62" width="20" height="2" stroke="#0000C1" fill="#0000C1"/>
    <rect x="0" y="64" width="20" height="2" stroke="#0000B7" fill="#0000B7"/>
    <rect x="0" y="66" width="20" height="2" stroke="#0000AD" fill="#0000AD"/>
    <rect x="0" y="68" width="20" height="2" stroke="#0000A3" fill="#0000A3"/>
    <rect x="0" y="70" width="20" height="2" stroke="#000099" fill="#000099"/>
    <rect x="0" y="72" width="20" height="2" stroke="#00008E" fill="#00008E"/>
    <rect x="0" y="74" width="20" height="2" stroke="#000084" fill="#000084"/>
    <rect x="0" y="76" width="20" height="2" stroke="#00007A" fill="#00007A"/>
    <rect x="0" y="78" width="20" height="2" stroke="#000070" fill="#000070"/>
    <rect x="0" y="80" width="20" height="2" stroke="#000065" fill="#000065"/>
    <rect x="0" y="82" width="20" height="2" stroke="#00005B" fill="#00005B"/>
    <rect x="0" y="84" width="20" height="2" stroke="#000051" fill="#000051"/>
    <rect x="0" y="86" width="20" height="2" stroke="#000047" fill="#000047"/>
    <rect x="0" y="88" width="20" height="2" stroke="#00003D" fill="#00003D"/>
    <rect x="0" y="90" width="20" height="2" stroke="#000032" fill="#000032"/>
    <rect x="0" y="92" width="20" height="2" stroke="#000028" fill="#000028"/>
    <rect x="0" y="94" width="20" height="2" stroke="#00001E" fill="#00001E"/>
    <rect x="0" y="96" width="20" height="2" stroke="#000014" fill="#000014"/>
    <rect x="0" y="98" width="20" height="2" stroke="#00000A" fill="#00000A"/>
    <rect x="0" y="100" width="20" height="2" stroke="#000000" fill="#000000"/>
    <rect x="0" y="102" width="20" height="2" stroke="#0A0A00" fill="#0A0A00"/>
    <rect x="0" y="104" width="20" height="2" stroke="#141400" fill="#141400"/>
    <rect x="0" y="106" width="20" height="2" stroke="#1E1E00" fill="#1E1E00"/>
    <rect x="0" y="108" width="20" height="2" stroke="#282800" fill="#282800"/>
    <rect x="0" y="110" width="20" height="2" stroke="#333300" fill="#333300"/>
    <rect x="0" y="112" width="20" height="2" stroke="#3D3D00" fill="#3D3D00"/>
    <rect x="0" y="114" width="20" height="2" stroke="#474700" fill="#474700"/>
    <rect x="0" y="116" width="20" height="2" stroke="#515100" fill="#515100"/>
    <rect x="0" y="118" width="20" height="2" stroke="#5B5B00" fill="#5B5B00"/>
    <rect x="0" y="120" width="20" height="2" stroke="#656500" fill="#656500"/>
    <rect x="0" y="122" width="20" height="2" stroke="#707000" fill="#707000"/>
    <rect x="0" y="124" width="20" height="2" stroke="#7A7A00" fill="#7A7A00"/>
    <rect x="0" y="126" width="20" height="2" stroke="#848400" fill="#848400"/>
    <rect x="0" y="128" width="20" height="2" stroke="#8E8E00" fill="#8E8E00"/>
    <rect x="0" y="130" width="20" height="2" stroke="#999900" fill="#999900"/>
    <rect x="0" y="132" width="20" height="2" stroke="#A3A300" fill="#A3A300"/>
    <rect x="0" y="134" width="20" height="2" stroke="#ADAD00" fill="#ADAD00"/>
    <rect x="0" y="136" width="20" height="2" stroke="#B7B700" fill="#B7B700"/>
    <rect x="0" y="138" width="20" height="2" stroke="#C1C100" fill="#C1C100"/>
    <rect x="0" y="140" width="20" height="2" stroke="#CBCB00" fill="#CBCB00"/>
    <rect x="0" y="142" width="20" height="2" stroke="#D6D600" fill="#D6D600"/>
    <rect x="0" y="144" width="20" height="2" stroke="#E0E000" fill="#E0E000"/>
    <rect x="0" y="146" width="20" height="2" stroke="#EAEA00" fill="#EAEA00"/>
    <rect x="0" y="148" width="20" height="2" stroke="#F4F400" fill="#F4F400"/>
    <rect x="0" y="150" width="20" height="2" stroke="#FFFF00" fill="#FFFF00"/>
    <rect x="0" y="152" width="20" height="2" stroke="#FFFF08" fill="#FFFF08"/>
    <rect x="0" y="154" width="20" height="2" stroke="#FFFF10" fill="#FFFF10"/>
    <rect x="0" y="156" width="20" height="2" stroke="#FFFF18" fill="#FFFF18"/>
    <rect x="0" y="158" width="20" height="2" stroke="#FFFF20" fill="#FFFF20"/>
    <rect x="0" y="160" width="20" height="2" stroke="#FFFF28" fill="#FFFF28"/>
    <rect x="0" y="162" width="20" height="2" stroke="#FFFF30" fill="#FFFF30"/>
    <rect x="0" y="164" width="20" height="2" stroke="#FFFF37" fill="#FFFF37"/>
    <rect x="0" y="166" width="20" height="2" stroke="#FFFF3F" fill="#FFFF3F"/>
    <rect x="0" y="168" width="20" height="2" stroke="#FFFF47" fill="#FFFF47"/>
    <rect x="0" y="170" width="20" height="2" stroke="#FFFF4F" fill="#FFFF4F"/>
    <rect x="0" y="172" width="20" height="2" stroke="#FFFF57" fill="#FFFF57"/>
    <rect x="0" y="174" width="20" height="2" stroke="#FFFF60" fill="#FFFF60"/>
    <rect x="0" y="176" width="20" height="2" stroke="#FFFF68" fill="#FFFF68"/>
    <rect x="0" y="178" width="20" height="2" stroke="#FFFF70" fill="#FFFF70"/>
    <rect x="0" y="180" width="20" height="2" stroke="#FFFF78" fill="#FFFF78"/>
    <rect x="0" y="182" width="20" height="2" stroke="#FFFF80" fill="#FFFF80"/>
    <rect x="0" y="184" width="20" height="2" stroke="#FFFF88" fill="#FFFF88"/>
    <rect x="0" y="186" width="20" height="2" stroke="#FFFF90" fill="#FFFF90"/>
    <rect x="0" y="188" width="20" height="2" stroke="#FFFF97" fill="#FFFF97"/>
    <rect x="0" y="190" width="20" height="2" stroke="#FFFF9F" fill="#FFFF9F"/>
    <rect x="0" y="192" width="20" height="2" stroke="#FFFFA7" fill="#FFFFA7"/>
    <rect x="0" y="194" width="20" height="2" stroke="#FFFFAF" fill="#FFFFAF"/>
    <rect x="0" y="196" width="20" height="2" stroke="#FFFFB8" fill="#FFFFB8"/>
    <rect x="0" y="198" width="20" height="2" stroke="#FFFFC0" fill="#FFFFC0"/>
    <rect x="0" y="0" width="20" height="200" stroke="#000000" fill="none"/>
    <rect x="30" y="0" width="20" height="2" stroke="#0000FF" fill="#0000FF"/>
    <rect x="30" y="2" width="20" height="2" stroke="#0000F9" fill="#0000F9"/>
    <rect x="30" y="4" width="20" height="2" stroke="#0000F4" fill="#0000F4"/>
    <rect x="30" y="6" width="20" height="2" stroke="#0000EF" fill="#0000EF"/>
    <rect x="30" y="8" width="20" height="2" stroke="#0000EA" fill="#0000EA"/>
    <rect x="30" y="10" width="20" height="2" stroke="#0000E5" fill="#0000E5"/>
    <rect x="30" y="12" width="20" height="2" stroke="#0000E0" fill="#0000E0"/>
    <rect x="30" y="14" width="20" height="2" stroke="#0000DB" fill="#0000DB"/>
    <rect x="30" y="16" width="20" height="2" stroke="#0000D6" fill="#0000D6"/>
    <rect x="30" y="18" width="20" height="2" stroke="#0000D1" fill="#0000D1"/>
    <rect x="30" y="20" width="20" height="2" stroke="#0000CC" fill="#0000CC"/>
    <rect x="30" y="22" width="20" height="2" stroke="#0000C6" fill="#0000C6"/>
    <rect x="30" y="24" width="20" height="2" stroke="#0000C1" fill="#0000C1"/>
    <rect x="30" y="26" width="20" height="2" stroke="#0000BC" fill="#0000BC"/>
    <rect x="30" y="28" width="20" height="2" stroke="#0000B7" fill="#0000B7"/>
    <rect x="30" y="30" width="20" height="2" stroke="#0000B2" fill="#0000B2"/>
    <rect x="30" y="32" width="20" height="2" stroke="#0000AD" fill="#0000AD"/>
    <rect x="30" y="34" width="20" height="2" stroke="#0000A8" fill="#0000A8"/>
    <rect x="30" y="36" width="20" height="2" stroke="#0000A3" fill="#0000A3"/>
    <rect x="30" y="38" width="20" height="2" stroke="#00009E" fill="#00009E"/>
    <rect x="30" y="40" width="20" height="2" stroke="#000099" fill="#000099"/>
    <rect x="30" y="42" width="20" height="2" stroke="#000093" fill="#000093"/>
    <rect x="30" y="44" width="20" height="2" stroke="#00008E" fill="#00008E"/>
    <rect x="30" y="46" width="20" height="2" stroke="#000089" fill="#000089"/>
    <rect x="30" y="48" width="20" height="2" stroke="#000084" fill="#000084"/>
    <rect x="30" y="50" width="20" height="2" stroke="#00007F" fill="#00007F"/>
    <rect x="30" y="52" width="20" height="2" stroke="#00007A" fill="#00007A"/>
    <rect x="30" y="54" width="20" height="2" stroke="#000075" fill="#000075"/>
    <rect x="30" y="56" width="20" height="2" stroke="#000070" fill="#000070"/>
    <rect x="30" y="58" width="20" height="2" stroke="#00006B" fill="#00006B"/>
    <rect x="30" y="60" width="20" height="2" stroke="#000066" fill="#000066"/>
    <rect x="30" y="62" width="20" height="2" stroke="#000060" fill="#000060"/>
    <rect x="30" y="64" width="20" height="2" stroke="#00005B" fill="#00005B"/>
    <rect x="30" y="66" width="20" height="2" stroke="#000056" fill="#000056"/>
    <rect x="30" y="68" width="20" height="2" stroke="#000051" fill="#000051"/>
    <rect x="30" y="70" width="20" height="2" stroke="#00004C" fill="#00004C"/>
    <rect x="30" y="72" width="20" height="2" stroke="#000047" fill="#000047"/>
    <rect x="30" y="74" width="20" height="2" stroke="#000042" fill="#000042"/>
    <rect x="30" y="76" width="20" height="2" stroke="#00003D" fill="#00003D"/>
    <rect x="30" y="78" width="20" height="2" stroke="#000038" fill="#000038"/>
    <rect x="30" y="80" width="20" height="2" stroke="#000032" fill="#000032"/>
    <rect x="30" y="82" width="20" height="2" stroke="#00002D" fill="#00002D"/>
    <rect x="30" y="84" width="20" height="2" stroke="#000028" fill="#000028"/>
    <rect x="30" y="86" width="20" height="2" stroke="#000023" fill="#000023"/>
    <rect x="30" y="88" width="20" height="2" stroke="#00001E" fill="#00001E"/>
    <rect x="30" y="90" width="20" height="2" stroke="#000019" fill="#000019"/>
    <rect x="30" y="92" width="20" height="2" stroke="#000014" fill="#000014"/>
    <rect x="30" y="94" width="20" height="2" stroke="#00000F" fill="#00000F"/>
    <rect x="30" y="96" width="20" height="2" stroke="#00000A" fill="#00000A"/>
    <rect x="30" y="98" width="20" height="2" stroke="#000005" fill="#000005"/>
    <rect x="30" y="100" width="20" height="2" stroke="#000000" fill="#000000"/>
    <rect x="30" y="102" width="20" height="2" stroke="#050500" fill="#050500"/>
    <rect x="30" y="104" width="20" height="2" stroke="#0A0A00" fill="#0A0A00"/>
    <rect x="30" y="106" width="20" height="2" stroke="#0F0F00" fill="#0F0F00"/>
    <rect x="30" y="108" width="20" height="2" stroke="#141400" fill="#141400"/>
    <rect x="30" y="110" width="20" height="2" stroke="#191900" fill="#191900"/>
    <rect x="30" y="112" width="20" height="2" stroke="#1E1E00" fill="#1E1E00"/>
    <rect x="30" y="114" width="20" height="2" stroke="#232300" fill="#232300"/>
    <rect x="30" y="116" width="20" height="2" stroke="#282800" fill="#282800"/>
    <rect x="30" y="118" width="20" height="2" stroke="#2D2D00" fill="#2D2D00"/>
    <rect x="30" y="120" width="20" height="2" stroke="#323200" fill="#323200"/>
    <rect x="30" y="122" width="20" height="2" stroke="#383800" fill="#383800"/>
    <rect x="30" y="124" width="20" height="2" stroke="#3D3D00" fill="#3D3D00"/>
    <rect x="30" y="126" width="20" height="2" stroke="#424200" fill="#424200"/>
    <rect x="30" y="128" width="20" height="2" stroke="#474700" fill="#474700"/>
    <rect x="30" y="130" width="20" height="2" stroke="#4C4C00" fill="#4C4C00"/>
    <rect x="30" y="132" width="20" height="2" stroke="#515100" fill="#515100"/>
    <rect x="30" y="134" width="20" height="2" stroke="#565600" fill="#565600"/>
    <rect x="30" y="136" width="20" height="2" stroke="#5B5B00" fill="#5B5B00"/>
    <rect x="30" y="138" width="20" height="2" stroke="#606000" fill="#606000"/>
    <rect x="30" y="140" width="20" height="2" stroke="#656500" fill="#656500"/>
    <rect x="30" y="142" width="20" height="2" stroke="#6B6B00" fill="#6B6B00"/>
    <rect x="30" y="144" width="20" height="2" stroke="#707000" fill="#707000"/>
    <rect x="30" y="146" width="20" height="2" stroke="#757500" fill="#757500"/>
    <rect x="30" y="148" width="20" height="2" stroke="#7A7A00" fill="#7A7A00"/>
    <rect x="30" y="150" width="20" height="2" stroke="#7F7F00" fill="#7F7F00"/>
    <rect x="30" y="152" width="20" height="2" stroke="#848400" fill="#848400"/>
    <rect x="30" y="154" width="20" height="2" stroke="#898900" fill="#898900"/>
    <rect x="30" y="156" width="20" height="2" stroke="#8E8E00" fill="#8E8E00"/>
    <rect x="30" y="158" width="20" height="2" stroke="#939300" fill="#939300"/>
    <rect x="30" y="160" width="20" height="2" stroke="#999900" fill="#999900"/>
    <rect x="30" y="162" width="20" height="2" stroke="#9E9E00" fill="#9E9E00"/>
    <rect x="30" y="164" width="20" height="2" stroke="#A3A300" fill="#A3A300"/>
    <rect x="30" y="166" width="20" height="2" stroke="#A8A800" fill="#A8A800"/>
    <rect x="30" y="168" width="20" height="2" stroke="#ADAD00" fill="#ADAD00"/>
    <rect x="30" y="170" width="20" height="2" stroke="#B2B200" fill="#B2B200"/>
    <rect x="30" y="172" width="20" height="2" stroke="#B7B700" fill="#B7B700"/>
    <rect x="30" y="174" width="20" height="2" stroke="#BCBC00" fill="#BCBC00"/>
    <rect x="30" y="176" width="20" height="2" stroke="#C1C100" fill="#C1C100"/>
    <rect x="30" y="178" width="20" height="2" stroke="#C6C600" fill="#C6C600"/>
    <rect x="30" y="180" width="20" height="2" stroke="#CCCC00" fill="#CCCC00"/>
    <rect x="30" y="182" width="20" height="2" stroke="#D1D100" fill="#D1D100"/>
    <rect x="30" y="184" width="20" height="2" stroke="#D6D600" fill="#D6D600"/>
    <rect x="30" y="186" width="20" height="2" stroke="#DBDB00" fill="#DBDB00"/>
    <rect x="30" y="188" width="20" height="2" stroke="#E0E000" fill="#E0E000"/>
    <rect x="30" y="190" width="20" height="2" stroke="#E5E500" fill="#E5E500"/>
    <rect x="30" y="192" width="20" height="2" stroke="#EAEA00" fill="#EAEA00"/>
    <rect x="30" y="194" width="20" height="2" stroke="#EFEF00" fill="#EFEF00"/>
    <rect x="30" y="196" width="20" height="2" stroke="#F4F400" fill="#F4F400"/>
    <rect x="30" y="198" width="20" height="2" stroke="#F9F900" fill="#F9F900"/>
    <rect x="30" y="0" width="20" height="200" stroke="#000000" fill="none"/>
    <rect x="60" y="0" width="20" height="2" stroke="#00FF00" fill="#00FF00"/>
    <rect x="60" y="2" width="20" height="2" stroke="#00F900" fill="#00F900"/>
    <rect x="60" y="4" width="20" height="2" stroke="#00F400" fill="#00F400"/>
    <rect x="60" y="6" width="20" height="2" stroke="#00EF00" fill="#00EF00"/>
    <rect x="60" y="8" width="20" height="2" stroke="#00EA00" fill="#00EA00"/>
    <rect x="60" y="10" width="20" height="2" stroke="#00E500" fill="#00E500"/>
    <rect x="60" y="12" width="20" height="2" stroke="#00E000" fill="#00E000"/>
    <rect x="60" y="14" width="20" height="2" stroke="#00DB00" fill="#00DB00"/>
    <rect x="60" y="16" width="20" height="2" stroke="#00D600" fill="#00D600"/>
    <rect x="60" y="18" width="20" height="2" stroke="#00D100" fill="#00D100"/>
    <rect x="60" y="20" width="20" height="2" stroke="#00CC00" fill="#00CC00"/>
    <rect x="60" y="22" width="20" height="2" stroke="#00C600" fill="#00C600"/>
    <rect x="60" y="24" width="20" height="2" stroke="#00C100" fill="#00C100"/>
    <rect x="60" y="26" width="20" height="2" stroke="#00BC00" fill="#00BC00"/>
    <rect x="60" y="28" width="20" height="2" stroke="#00B700" fill="#00B700"/>
    <rect x="60" y="30" width="20" height="2" stroke="#00B200" fill="#00B200"/>
    <rect x="60" y="32" width="20" height="2" stroke="#00AD00" fill="#00AD00"/>
    <rect x="60" y="34" width="20" height="2" stroke="#00A800" fill="#00A800"/>
    <rect x="60" y="36" width="20" height="2" stroke="#00A300" fill="#00A300"/>
    <rect x="60" y="38" width="20" height="2" stroke="#009E00" fill="#009E00"/>
    <rect x="60" y="40" width="20" height="2" stroke="#009900" fill="#009900"/>
    <rect x="60" y="42" width="20" height="2" stroke="#009300" fill="#009300"/>
    <rect x="60" y="44" width="20" height="2" stroke="#008E00" fill="#008E00"/>
    <rect x="60" y="46" width="20" height="2" stroke="#008900" fill="#008900"/>
    <rect x="60" y="48" width="20" height="2" stroke="#008400" fill="#008400"/>
    <rect x="60" y="50" width="20" height="2" stroke="#007F00" fill="#007F00"/>
    <rect x="60" y="52" width="20" height="2" stroke="#007A00" fill="#007A00"/>
    <rect x="60" y="54" width="20" height="2" stroke="#007500" fill="#007500"/>
    <rect x="60" y="56" width="20" height="2" stroke="#007000" fill="#007000"/>
    <rect x="60" y="58" width="20" height="2" stroke="#006B00" fill="#006B00"/>
    <rect x="60" y="60" width="20" height="2" stroke="#006600" fill="#006600"/>
    <rect x="60" y="62" width="20" height="2" stroke="#006000" fill="#006000"/>
    <rect x="60" y="64" width="20" height="2" stroke="#005B00" fill="#005B00"/>
    <rect x="60" y="66" width="20" height="2" stroke="#005600" fill="#005600"/>
    <rect x="60" y="68" width="20" height="2" stroke="#005100" fill="#005100"/>
    <rect x="60" y="70" width="20" height="2" stroke="#004C00" fill="#004C00"/>
    <rect x="60" y="72" width="20" height="2" stroke="#004700" fill="#004700"/>
    <rect x="60" y="74" width="20" height="2" stroke="#004200" fill="#004200"/>
    <rect x="60" y="76" width="20" height="2" stroke="#003D00" fill="#003D00"/>
    <rect x="60" y="78" width="20" height="2" stroke="#003800" fill="#003800"/>
    <rect x="60" y="80" width="20" height="2" stroke="#003200" fill="#003200"/>
    <rect x="60" y="82" width="20" height="2" stroke="#002D00" fill="#002D00"/>
    <rect x="60" y="84" width="20" height="2" stroke="#002800" fill="#002800"/>
    <rect x="60" y="86" width="20" height="2" stroke="#002300" fill="#002300"/>
    <rect x="60" y="88" width="20" height="2" stroke="#001E00" fill="#001E00"/>
    <rect x="60" y="90" width="20" height="2" stroke="#001900" fill="#001900"/>
    <rect x="60" y="92" width="20" height="2" stroke="#001400" fill="#001400"/>
    <rect x="60" y="94" width="20" height="2" stroke="#FF0000" fill="#FF0000"/>
    <rect x="60" y="96" width="20" height="2" stroke="#AA0000" fill="#AA0000"/>
    <rect x="60" y="98" width="20" height="2" stroke="#550000" fill="#550000"/>
    <rect x="60" y="100" width="20" height="2" stroke="#000000" fill="#000000"/>
    <rect x="60" y="102" width="20" height="2" stroke="#050000" fill="#050000"/>
    <rect x="60" y="104" width="20" height="2" stroke="#0A0000" fill="#0A0000"/>
    <rect x="60" y="106" width="20" height="2" stroke="#0F0000" fill="#0F0000"/>
    <rect x="60" y="108" width="20" height="2" stroke="#140000" fill="#140000"/>
    <rect x="60" y="110" width="20" height="2" stroke="#190000" fill="#190000"/>
    <rect x="60" y="112" width="20" height="2" stroke="#1E0000" fill="#1E0000"/>
    <rect x="60" y="114" width="20" height="2" stroke="#230000" fill="#230000"/>
    <rect x="60" y="116" width="20" height="2" stroke="#280000" fill="#280000"/>
    <rect x="60" y="118" width="20" height="2" stroke="#2D0000" fill="#2D0000"/>
    <rect x="60" y="120" width="20" height="2" stroke="#320000" fill="#320000"/>
    <rect x="60" y="122" width="20" height="2" stroke="#380000" fill="#380000"/>
    <rect x="60" y="124" width="20" height="2" stroke="#3D0000" fill="#3D0000"/>
    <rect x="60" y="126" width="20" height="2" stroke="#420000" fill="#420000"/>
    <rect x="60" y="128" width="20" height="2" stroke="#470000" fill="#470000"/>
    <rect x="60" y="130" width="20" height="2" stroke="#4C0000" fill="#4C0000"/>
    <rect x="60" y="132" width="20" height="2" stroke="#510000" fill="#510000"/>
    <rect x="60" y="134" width="20" height="2" stroke="#560000" fill="#560000"/>
    <rect x="60" y="136" width="20" height="2" stroke="#5B0000" fill="#5B0000"/>
    <rect x="60" y="138" width="20" height="2" stroke="#600000" fill="#600000"/>
    <rect x="60" y="140" width="20" height="2" stroke="#650000" fill="#650000"/>
    <rect x="60" y="142" width="20" height="2" stroke="#6B0000" fill="#6B0000"/>
    <rect x="60" y="144" width="20" height="2" stroke="#700000" fill="#700000"/>
    <rect x="60" y="146" width="20" height="2" stroke="#750000" fill="#750000"/>
    <rect x="60" y="148" width="20" height="2" stroke="#7A0000" fill="#7A0000"/>
    <rect x="60" y="150" width="20" height="2" stroke="#7F0000" fill="#7F0000"/>
    <rect x="60" y="152" width="20" height="2" stroke="#840000" fill="#840000"/>
    <rect x="60" y="154" width="20" height="2" stroke="#890000" fill="#890000"/>
    <rect x="60" y="156" width="20" height="2" stroke="#8E0000" fill="#8E0000"/>
    <rect x="60" y="158" width="20" height="2" stroke="#930000" fill="#930000"/>
    <rect x="60" y="160" width="20" height="2" stroke="#990000" fill="#990000"/>
    <rect x="60" y="162" width="20" height="2" stroke="#9E0000" fill="#9E0000"/>
    <rect x="60" y="164" width="20" height="2" stroke="#A30000" fill="#A30000"/>
    <rect x="60" y="166" width="20" height="2" stroke="#A80000" fill="#A80000"/>
    <rect x="60" y="168" width="20" height="2" stroke="#AD0000" fill="#AD0000"/>
    <rect x="60" y="170" width="20" height="2" stroke="#B20000" fill="#B20000"/>
    <rect x="60" y="172" width="20" height="2" stroke="#B70000" fill="#B70000"/>
    <rect x="60" y="174" width="20" height="2" stroke="#BC0000" fill="#BC0000"/>
    <rect x="60" y="176" width="20" height="2" stroke="#C10000" fill="#C10000"/>
    <rect x="60" y="178" width="20" height="2" stroke="#C60000" fill="#C60000"/>
    <rect x="60" y="180" width="20" height="2" stroke="#CC0000" fill="#CC0000"/>
    <rect x="60" y="182" width="20" height="2" stroke="#D10000" fill="#D10000"/>
    <rect x="60" y="184" width="20" height="2" stroke="#D60000" fill="#D60000"/>
    <rect x="60" y="186" width="20" height="2" stroke="#DB0000" fill="#DB0000"/>
    <rect x="60" y="188" width="20" height="2" stroke="#E00000" fill="#E00000"/>
    <rect x="60" y="190" width="20" height="2" stroke="#E50000" fill="#E50000"/>
    <rect x="60" y="192" width="20" height="2" stroke="#EA0000" fill="#EA0000"/>
    <rect x="60" y="194" width="20" height="2" stroke="#EF0000" fill="#EF0000"/>
    <rect x="60" y="196" width="20" height="2" stroke="#F40000" fill="#F40000"/>
    <rect x="60" y="198" width="20" height="2" stroke="#F90000" fill="#F90000"/>
    <rect x="60" y="0" width="20" height="200" stroke="#000000" fill="none"/>
  </g>
  <g transform="translate(0 0) rotate(0)" style="opacity:1;">
    <text x="58.5" y="13.200000000000001" font-size="12">CytoBank Blue-Yellow</text>
    <text x="32" y="43.2" font-size="12">Blue-Yellow</text>
    <text x="28" y="73.2" font-size="12">Green-Red</text>
  </g>
</svg>