<?xml version="1.0" encoding="utf-8"?>
<!DOCTYPE svg PUBLIC "-//W3C//DTD SVG 1.1//EN" "http://www.w3.org/Graphics/SVG/1.1/DTD/svg11.dtd" [
	<!ENTITY ns_svg "http://www.w3.org/2000/svg">
	<!ENTITY ns_xlink "http://www.w3.org/1999/xlink">
]>
<svg xmlns="&ns_svg;" xmlns:xlink="&ns_xlink;" width="136" height="40" viewBox="0 -40 159 117">
<defs>
<radialGradient id='renderingstyle_body' cx='50%' cy='50%' r='50%' fx='50%' fy='50%'>
<stop offset='5%' style='stop-color:white;stop-opacity:1'/>
<stop offset='95%' style='stop-color:orange;stop-opacity:1'/>
</radialGradient>
<linearGradient id='renderingstyle_edge' x1='0%' x2='100%' y1='0%' y2='0%'>
<stop offset='25%' style='stop-color:black;stop-opacity:.3'/>
<stop offset='95%' style='stop-color:black;stop-opacity:.7'/>
</linearGradient>
</defs>
<ellipse style="fill:url(#renderingstyle_body);stroke:url(#renderingstyle_edge);" cx="  8" cy="20" rx="8" ry="20"/>
<ellipse style="fill:url(#renderingstyle_body);stroke:url(#renderingstyle_edge);" cx=" 28" cy="20" rx="8" ry="20"/>
<ellipse style="fill:url(#renderingstyle_body);stroke:url(#renderingstyle_edge);" cx=" 48" cy="20" rx="8" ry="20"/>
<ellipse style="fill:url(#renderingstyle_body);stroke:url(#renderingstyle_edge);" cx=" 68" cy="20" rx="8" ry="20"/>
<ellipse style="fill:url(#renderingstyle_body);stroke:url(#renderingstyle_edge);" cx=" 88" cy="20" rx="8" ry="20"/>
<ellipse style="fill:url(#renderingstyle_body);stroke:url(#renderingstyle_edge);" cx="108" cy="20" rx="8" ry="20"/>
<ellipse style="fill:url(#renderingstyle_body);stroke:url(#renderingstyle_edge);" cx="128" cy="20" rx="8" ry="20"/>
<path style="fill:none;stroke:black;" d="
M 150,-40
c -30,40 -150,-10 -142,40
m 0,40
c -10,20 30,20 20,0
m 0,-40
c -10,-20 30,-20 20,0
m 0,40
c -10,20 30,20 20,0
m 0,-40
c -10,-20 30,-20 20,0
m 0,40
c -10,40 -60,20 -80,30
c 10,5 100,10 100,-30
m 0,-40
c -10,-20 30,-20 20,0
m 0,40
q 0,20 30,12
"/>
</svg>
