<?xml version="1.0" encoding="UTF-8" standalone="no"?>
<!-- Generated by Graphviz version 2.12 (Mon Dec  4 22:04:37 UTC 2006)
     For user: Bill Gates -->
<!-- Title: G Pages: 1 -->
<svg
   xmlns:dc="http://purl.org/dc/elements/1.1/"
   xmlns:cc="http://creativecommons.org/ns#"
   xmlns:rdf="http://www.w3.org/1999/02/22-rdf-syntax-ns#"
   xmlns:svg="http://www.w3.org/2000/svg"
   xmlns="http://www.w3.org/2000/svg"
   xmlns:xlink="http://www.w3.org/1999/xlink"
   xmlns:sodipodi="http://sodipodi.sourceforge.net/DTD/sodipodi-0.dtd"
   xmlns:inkscape="http://www.inkscape.org/namespaces/inkscape"
   width="76.637634"
   height="49.33321"
   id="svg2"
   sodipodi:version="0.32"
   inkscape:version="0.46"
   sodipodi:docname="egg.svg"
   inkscape:output_extension="org.inkscape.output.svg.inkscape"
   version="1.0"
   inkscape:export-filename="C:\server\jkarr\private\NetworkPainter\src\edu\stanford\covertlab\graphics\shape\svg\egg.png"
   inkscape:export-xdpi="117.44"
   inkscape:export-ydpi="117.44">
  <metadata
     id="metadata27">
    <rdf:RDF>
      <cc:Work
         rdf:about="">
        <dc:format>image/svg+xml</dc:format>
        <dc:type
           rdf:resource="http://purl.org/dc/dcmitype/StillImage" />
      </cc:Work>
    </rdf:RDF>
  </metadata>
  <defs
     id="defs25">
    <inkscape:perspective
       sodipodi:type="inkscape:persp3d"
       inkscape:vp_x="0 : 27.000002 : 1"
       inkscape:vp_y="0 : 1000 : 0"
       inkscape:vp_z="80.099998 : 27.000002 : 1"
       inkscape:persp3d-origin="40.049999 : 18.000001 : 1"
       id="perspective29" />
    <defs
       id="defs5">
      <radialGradient
         gradientUnits="userSpaceOnUse"
         gradientTransform="scale(1.2463826,0.8023219)"
         fy="-22.434887"
         fx="22.465025"
         r="23.058079"
         cy="-22.434887"
         cx="22.465025"
         id="renderingstyle_body">
        <stop
           id="stop8"
           style="stop-color:white;stop-opacity:1"
           offset="5%" />
        <stop
           id="stop10"
           style="stop-color:orange;stop-opacity:1"
           offset="95%" />
      </radialGradient>
      <linearGradient
         gradientUnits="userSpaceOnUse"
         gradientTransform="scale(1.2463826,0.8023219)"
         y2="-45.492966"
         y1="-45.492966"
         x2="45.523102"
         x1="-0.59305388"
         id="renderingstyle_edge">
        <stop
           id="stop13"
           style="stop-color:black;stop-opacity:.3"
           offset="25%" />
        <stop
           id="stop15"
           style="stop-color:black;stop-opacity:.7"
           offset="95%" />
      </linearGradient>
    </defs>
    <radialGradient
       inkscape:collect="always"
       xlink:href="#renderingstyle_body"
       id="radialGradient2413"
       gradientUnits="userSpaceOnUse"
       gradientTransform="scale(1.2463826,0.8023219)"
       cx="22.465025"
       cy="-22.434887"
       fx="22.465025"
       fy="-22.434887"
       r="23.058079" />
    <linearGradient
       inkscape:collect="always"
       xlink:href="#renderingstyle_edge"
       id="linearGradient2415"
       gradientUnits="userSpaceOnUse"
       gradientTransform="scale(1.2463826,0.8023219)"
       x1="-0.59305388"
       y1="-45.492966"
       x2="45.523102"
       y2="-45.492966" />
  </defs>
  <sodipodi:namedview
     inkscape:window-height="675"
     inkscape:window-width="640"
     inkscape:pageshadow="2"
     inkscape:pageopacity="0.0"
     guidetolerance="10.0"
     gridtolerance="10.0"
     objecttolerance="10.0"
     borderopacity="1.0"
     bordercolor="#666666"
     pagecolor="#ffffff"
     id="base"
     showgrid="false"
     inkscape:zoom="6.9912611"
     inkscape:cx="40.049999"
     inkscape:cy="27.000002"
     inkscape:window-x="154"
     inkscape:window-y="154"
     inkscape:current-layer="svg2" />
  <g
     class="node"
     id="node1"
     transform="matrix(1.33333,0,0,1.33333,0.9855602,48.666545)">
    <title
       id="title20">testnode</title>
    <polygon
       id="polygon22"
       points="30.6132,-0.0493367 32.3433,-0.147875 34.0555,-0.295345 35.7429,-0.491342 37.3985,-0.735329 39.0158,-1.02664 40.5883,-1.36447 42.11,-1.7479 43.575,-2.17587 44.978,-2.64722 46.3138,-3.16064 47.5778,-3.71474 48.7659,-4.308 49.8741,-4.93879 50.8994,-5.60537 51.8388,-6.30593 52.69,-7.03854 53.4512,-7.80119 54.121,-8.5918 54.6987,-9.4082 55.1837,-10.2481 55.5763,-11.1093 55.877,-11.9894 56.0867,-12.886 56.2068,-13.7965 56.2392,-14.7186 56.1858,-15.6497 56.0492,-16.5873 55.8321,-17.5287 55.5375,-18.4713 55.1686,-19.4127 54.7289,-20.3503 54.2219,-21.2814 53.6513,-22.2035 53.0209,-23.114 52.3346,-24.0106 51.596,-24.8907 50.8092,-25.7519 49.9778,-26.5918 49.1055,-27.4082 48.196,-28.1988 47.2528,-28.9615 46.279,-29.6941 45.2781,-30.3946 44.2528,-31.0612 43.2061,-31.692 42.1406,-32.2853 41.0586,-32.8394 39.9625,-33.3528 38.8541,-33.8241 37.7354,-34.2521 36.608,-34.6355 35.4733,-34.9734 34.3327,-35.2647 33.1873,-35.5087 32.0383,-35.7047 30.8864,-35.8521 29.7326,-35.9507 28.5777,-36 27.4223,-36 26.2674,-35.9507 25.1136,-35.8521 23.9617,-35.7047 22.8127,-35.5087 21.6673,-35.2647 20.5267,-34.9734 19.392,-34.6355 18.2646,-34.2521 17.1459,-33.8241 16.0375,-33.3528 14.9414,-32.8394 13.8594,-32.2853 12.7939,-31.692 11.7472,-31.0612 10.7219,-30.3946 9.72095,-29.6941 8.74725,-28.9615 7.80398,-28.1988 6.89448,-27.4082 6.02223,-26.5918 5.19083,-25.7519 4.40397,-24.8907 3.66544,-24.0106 2.97906,-23.114 2.34867,-22.2035 1.77809,-21.2814 1.27109,-20.3503 0.831371,-19.4127 0.462503,-18.4713 0.167904,-17.5287 -0.0492001,-16.5873 -0.185806,-15.6497 -0.239172,-14.7186 -0.20685,-13.7965 -0.086718,-12.886 0.122991,-11.9894 0.42366,-11.1093 0.816263,-10.2481 1.30134,-9.4082 1.879,-8.5918 2.54885,-7.80119 3.31004,-7.03854 4.16125,-6.30593 5.10063,-5.60537 6.12586,-4.93879 7.23415,-4.308 8.42218,-3.71474 9.68622,-3.16064 11.022,-2.64722 12.425,-2.17587 13.89,-1.7479 15.4117,-1.36447 16.9842,-1.02664 18.6015,-0.735329 20.2571,-0.491342 21.9445,-0.295345 23.6567,-0.147875 25.3868,-0.0493367 27.1277,-1.77636e-13 28.8723,-1.84741e-13 30.6132,-0.0493367 "
       style="fill:url(#radialGradient2413);stroke:url(#linearGradient2415)" />
  </g>
</svg>
